<svg width="35px" height="35px" viewBox="3 2 35 35" version="1.1" xmlns="http://www.w3.org/2000/svg" xmlns:xlink="http://www.w3.org/1999/xlink">
    <!-- Generator: Sketch 42 (36781) - http://www.bohemiancoding.com/sketch -->
    <desc>Created with Sketch.</desc>
    <defs></defs>
    <g id="death_star" stroke="none" stroke-width="1" fill="none" fill-rule="evenodd" transform="translate(3.000000, 2.000000)">
        <path d="M34.9389066,16.8800694 C34.9006362,15.8142361 34.7785885,14.7703472 34.5580815,13.7617361 L27.4717992,13.7617361 L27.4717992,12.5144444 L29.9714115,12.5144444 L29.9714115,11.2671528 L24.9721869,11.2671528 L24.9721869,10.0197917 L28.7216402,10.0197917 L28.7216402,8.7725 L27.4717992,8.7725 L27.4717992,7.52520833 L24.9721869,7.52520833 L24.9721869,6.27770833 L26.2220278,6.27770833 L26.2220278,5.03041667 L23.7223459,5.03041667 L23.7223459,3.783125 L24.9721869,3.783125 L24.9721869,2.53576389 L24.9721869,1.74402778 C22.6970477,0.663958333 20.160835,0.0411111111 17.4732803,0.0411111111 C8.02035785,0.0411111111 0.338866799,7.52673611 0.00723658052,16.8800694 L34.9389066,16.8800694 Z M11.2242843,3.783125 C13.9846918,3.783125 16.2235089,6.0175 16.2235089,8.77243056 C16.2235089,11.5281944 13.9846918,13.7617361 11.2242843,13.7617361 C8.46262425,13.7617361 6.22499006,11.528125 6.22499006,8.77243056 C6.22499006,6.0175 8.46262425,3.783125 11.2242843,3.783125 L11.2242843,3.783125 Z" id="Shape" fill="yellow" fill-rule="nonzero"></path>
        <path d="M21.2227336,33.7190278 L19.9728926,33.7190278 L19.9728926,32.4717361 L23.7223459,32.4717361 L23.7223459,31.224375 L24.9721869,31.224375 L24.9721869,29.9770139 L28.7216402,29.9770139 L28.7216402,28.7297222 L29.9714115,28.7297222 L29.9714115,27.4823611 L27.4717992,27.4823611 L27.4717992,26.2350694 L23.7223459,26.2350694 L23.7223459,24.9877083 L26.2220278,24.9877083 L26.2220278,23.7403472 L31.2212525,23.7403472 L31.2212525,22.4930556 L28.7216402,22.4930556 L28.7216402,21.2456944 L34.5581511,21.2456944 C34.7786581,20.2371528 34.9007058,19.1936111 34.9389761,18.1273611 L0.00723658052,18.1273611 C0.338797217,27.4815278 8.02035785,34.9663194 17.4732803,34.9663194 C18.7620875,34.9663194 20.0144334,34.8177083 21.2227336,34.5545833 L21.2227336,33.7190278 L21.2227336,33.7190278 Z" id="Shape" fill="yellow" fill-rule="nonzero"></path>
    </g>
</svg>
